<svg xmlns="http://www.w3.org/2000/svg" version="1.1" viewBox="-5.0 -10.0 110.0 135.0">
 <path d="m22.5 14c0-0.82812 0.67188-1.5 1.5-1.5s1.5 0.67188 1.5 1.5v1c0 0.82812-0.67188 1.5-1.5 1.5s-1.5-0.67188-1.5-1.5zm1.5 4.5c-0.82812 0-1.5 0.67188-1.5 1.5v3c0 0.82812 0.67188 1.5 1.5 1.5s1.5-0.67188 1.5-1.5v-3c0-0.82812-0.67188-1.5-1.5-1.5zm0 8c-0.82812 0-1.5 0.67188-1.5 1.5v10.379l-5.4375-5.4414c-0.58594-0.58203-1.5391-0.58203-2.125 0-0.58203 0.58594-0.58203 1.5391 0 2.125l8 8c0.58594 0.58203 1.5391 0.58203 2.125 0l8-8c0.58203-0.58594 0.58203-1.5391 0-2.125-0.58594-0.58203-1.5391-0.58203-2.125 0l-5.4375 5.4414v-10.379c0-0.82812-0.67188-1.5-1.5-1.5zm21.5 0.5c0-1.9336 1.5664-3.5 3.5-3.5s3.5 1.5664 3.5 3.5v21.363c0 0.82812 0.67188 1.5 1.5 1.5s1.5-0.67188 1.5-1.5v-5.0039c0-1.9297 1.5664-3.4961 3.5-3.4961s3.5 1.5664 3.5 3.5v5c0 0.82812 0.67188 1.5 1.5 1.5s1.5-0.67188 1.5-1.5v-3.1797c0-1.9336 1.5664-3.5 3.5-3.5s3.5 1.5664 3.5 3.5v4.543c0 0.82813 0.67188 1.5 1.5 1.5s1.5-0.67187 1.5-1.5c0-1.9336 1.5664-3.5 3.5-3.5s3.5 1.5664 3.5 3.5v12.273c0 12.98-10.52 23.5-23.5 23.5s-23.5-10.52-23.5-23.5v-12.727c0-1.9336 1.5664-3.5 3.5-3.5s3.5 1.5664 3.5 3.5v11.363c0 0.82812 0.67188 1.5 1.5 1.5s1.5-0.67188 1.5-1.5zm10 0v10.883c1.0117-0.64453 2.2109-1.0195 3.5-1.0195 2.4766 0 4.6289 1.3828 5.7266 3.4219 1.1406-1 2.6367-1.6016 4.2734-1.6016 3.2852 0 6.0039 2.4375 6.4375 5.6055 1.0234-0.67187 2.2461-1.0625 3.5625-1.0625 3.5898 0 6.5 2.9102 6.5 6.5v12.273c0 14.637-11.863 26.5-26.5 26.5s-26.5-11.863-26.5-26.5v-12.727c0-3.5898 2.9102-6.5 6.5-6.5 1.2891 0 2.4883 0.375 3.5 1.0195v-16.793c0-3.5898 2.9102-6.5 6.5-6.5s6.5 2.9102 6.5 6.5z" fill-rule="evenodd"/>
</svg>